<svg width="28" height="27" viewBox="0 0 28 27" fill="none" xmlns="http://www.w3.org/2000/svg">
<path d="M14.0003 0.166748C6.64033 0.166748 0.666992 6.14008 0.666992 13.5001C0.666992 20.8601 6.64033 26.8334 14.0003 26.8334C21.3603 26.8334 27.3337 20.8601 27.3337 13.5001C27.3337 6.14008 21.3603 0.166748 14.0003 0.166748ZM7.80033 22.1667C9.54699 20.9134 11.6803 20.1667 14.0003 20.1667C16.3203 20.1667 18.4537 20.9134 20.2003 22.1667C18.4537 23.4201 16.3203 24.1667 14.0003 24.1667C11.6803 24.1667 9.54699 23.4201 7.80033 22.1667ZM22.187 20.3267C19.9337 18.5667 17.0937 17.5001 14.0003 17.5001C10.907 17.5001 8.06699 18.5667 5.81366 20.3267C4.26699 18.4734 3.33366 16.1001 3.33366 13.5001C3.33366 7.60675 8.10699 2.83341 14.0003 2.83341C19.8937 2.83341 24.667 7.60675 24.667 13.5001C24.667 16.1001 23.7337 18.4734 22.187 20.3267Z" fill="#222222"/>
<path d="M14.0003 5.50008C11.427 5.50008 9.33366 7.59341 9.33366 10.1667C9.33366 12.7401 11.427 14.8334 14.0003 14.8334C16.5737 14.8334 18.667 12.7401 18.667 10.1667C18.667 7.59341 16.5737 5.50008 14.0003 5.50008ZM14.0003 12.1667C12.8937 12.1667 12.0003 11.2734 12.0003 10.1667C12.0003 9.06008 12.8937 8.16675 14.0003 8.16675C15.107 8.16675 16.0003 9.06008 16.0003 10.1667C16.0003 11.2734 15.107 12.1667 14.0003 12.1667Z" fill="#222222"/>
</svg>
